<svg xmlns="http://www.w3.org/2000/svg" width="21" height="18"><style/><g id="screenshot img"><g id="inner post"><g id="post info"><g id="social btns"><g id="facebook"><path id="icon" d="M20.31 8.83c0-.81-.92-1.18-1.18-1.18h-6.11s.59-2.6.62-3.51c.03-.91-.87-2.84-1.05-3-.19-.16-1.15-.33-1.6.16.02.67.14 2.81.14 2.81S9.71 6.69 8.88 7.96C8.05 9.23 7 9.86 7 9.86v6.45h.58c.2 0 .92.67 1.44.67h7.63c.64 0 1.76-.06 1.76-1.14 0-.41-.23-.81-.43-.86v-.12s1.07-.33 1.07-1.29c0-.52-.44-.79-.44-.79l.07-.26s1-.37 1-1.33c0-.59-.42-.7-.42-.7l.07-.29s1-.41 1-1.37zm-15.33.15H1.31c-.55 0-1 .45-1 1l.67 6.67c0 .55.45 1 1 1h3c.55 0 1-.45 1-1V9.98c0-.55-.45-1-1-1z" fill="#fff"/></g></g></g></g></g></svg>