<svg xmlns="http://www.w3.org/2000/svg" width="21" height="17"><style/><g id="screenshot img"><g id="inner post"><g id="post info"><g id="social btns"><g id="twitter"><path id="icon" d="M20.5 2.33c-.34.19-1.35.56-2.29.65.6-.33 1.5-1.39 1.72-2.24-.58.37-1.91.91-2.57.91A4.099 4.099 0 0 0 14.38.37c-2.28 0-4.13 1.85-4.13 4.13 0 .32.04.63.1.92-3.09-.08-6.47-1.63-8.51-4.28C.59 3.3 1.67 5.71 3.09 6.59c-.49.04-1.38-.06-1.8-.47-.03 1.44.66 3.34 3.18 4.03-.49.26-1.34.19-1.72.13.13 1.21 1.83 2.8 3.69 2.8-.66.77-3.15 2.15-5.95 1.71 1.9 1.16 4.11 1.82 6.45 1.82 6.66 0 11.83-5.39 11.55-12.05v-.13a7.05 7.05 0 0 0 2-2.11z" fill="#fff"/></g></g></g></g></g></svg>