<svg xmlns="http://www.w3.org/2000/svg" viewBox="0 0 21 18" width="21" height="18">
	<style>
		tspan { white-space:pre }
		.shp0 { fill: #ffffff } 
	</style>
	<g id="screenshot img">
		<g id="inner post">
			<g id="post info">
				<g id="social btns">
					<g id="facebook">
						<path id="icon" class="shp0" d="M20.31,8.83c0,-0.81 -0.92,-1.18 -1.18,-1.18c-0.26,0 -6.11,0 -6.11,0c0,0 0.59,-2.6 0.62,-3.51c0.03,-0.91 -0.87,-2.84 -1.05,-3c-0.19,-0.16 -1.15,-0.33 -1.6,0.16c0.02,0.67 0.14,2.81 0.14,2.81c0,0 -1.42,2.58 -2.25,3.85c-0.83,1.27 -1.88,1.9 -1.88,1.9v6.45c0,0 0.38,0 0.58,0c0.2,0 0.92,0.67 1.44,0.67c0.53,0 6.74,0 7.63,0c0.64,0 1.76,-0.06 1.76,-1.14c0,-0.41 -0.23,-0.81 -0.43,-0.86c0,-0.09 0,-0.12 0,-0.12c0,0 1.07,-0.33 1.07,-1.29c0,-0.52 -0.44,-0.79 -0.44,-0.79l0.07,-0.26c0,0 1,-0.37 1,-1.33c0,-0.59 -0.42,-0.7 -0.42,-0.7l0.07,-0.29c0,0 1,-0.41 1,-1.37zM4.98,8.98h-3.67c-0.55,0 -1,0.45 -1,1l0.67,6.67c0,0.55 0.45,1 1,1h3c0.55,0 1,-0.45 1,-1v-6.67c0,-0.55 -0.45,-1 -1,-1z" />
					</g>
				</g>
			</g>
		</g>
	</g>
</svg>