<svg xmlns="http://www.w3.org/2000/svg" viewBox="0 0 21 17" width="21" height="17">
	<style>
		tspan { white-space:pre }
		.shp0 { fill: #ffffff } 
	</style>
	<g id="screenshot img">
		<g id="inner post">
			<g id="post info">
				<g id="social btns">
					<g id="twitter">
						<path id="icon" class="shp0" d="M20.5,2.33c-0.34,0.19 -1.35,0.56 -2.29,0.65c0.6,-0.33 1.5,-1.39 1.72,-2.24c-0.58,0.37 -1.91,0.91 -2.57,0.91c0,0 0,0 0,0c-0.75,-0.79 -1.81,-1.28 -2.98,-1.28c-2.28,0 -4.13,1.85 -4.13,4.13c0,0.32 0.04,0.63 0.1,0.92h0c-3.09,-0.08 -6.47,-1.63 -8.51,-4.28c-1.25,2.16 -0.17,4.57 1.25,5.45c-0.49,0.04 -1.38,-0.06 -1.8,-0.47c-0.03,1.44 0.66,3.34 3.18,4.03c-0.49,0.26 -1.34,0.19 -1.72,0.13c0.13,1.21 1.83,2.8 3.69,2.8c-0.66,0.77 -3.15,2.15 -5.95,1.71c1.9,1.16 4.11,1.82 6.45,1.82c6.66,0 11.83,-5.39 11.55,-12.05c0,-0.01 0,-0.01 0,-0.02c0,-0.02 0,-0.04 0,-0.05c0,-0.02 0,-0.04 0,-0.06c0.61,-0.41 1.42,-1.15 2,-2.11z" />
					</g>
				</g>
			</g>
		</g>
	</g>
</svg>